solid ascii
  facet normal 8.681631e+00 3.596037e+00 3.390944e+00
    outer loop
      vertex   1.082532e+00 6.250000e-01 2.904911e+01
      vertex   0.000000e+00 0.000000e+00 3.248346e+01
      vertex   1.207407e+00 3.235240e-01 2.904911e+01
    endloop
  endfacet
  facet normal 7.455067e+00 5.720505e+00 3.390944e+00
    outer loop
      vertex   1.082532e+00 6.250000e-01 2.904911e+01
      vertex   8.838830e-01 8.838830e-01 2.904911e+01
      vertex   0.000000e+00 0.000000e+00 3.248346e+01
    endloop
  endfacet
  facet normal 5.720506e+00 7.455067e+00 3.390944e+00
    outer loop
      vertex   8.838830e-01 8.838830e-01 2.904911e+01
      vertex   6.250000e-01 1.082532e+00 2.904911e+01
      vertex   0.000000e+00 0.000000e+00 3.248346e+01
    endloop
  endfacet
  facet normal 1.226551e+00 9.316532e+00 3.390944e+00
    outer loop
      vertex   0.000000e+00 1.250000e+00 2.904911e+01
      vertex   0.000000e+00 0.000000e+00 3.248346e+01
      vertex   3.235240e-01 1.207407e+00 2.904911e+01
    endloop
  endfacet
  facet normal -1.226551e+00 9.316532e+00 3.390944e+00
    outer loop
      vertex   0.000000e+00 1.250000e+00 2.904911e+01
      vertex   -3.235240e-01 1.207407e+00 2.904911e+01
      vertex   0.000000e+00 0.000000e+00 3.248346e+01
    endloop
  endfacet
  facet normal -3.596037e+00 8.681632e+00 3.390944e+00
    outer loop
      vertex   -3.235240e-01 1.207407e+00 2.904911e+01
      vertex   -6.250000e-01 1.082532e+00 2.904911e+01
      vertex   0.000000e+00 0.000000e+00 3.248346e+01
    endloop
  endfacet
  facet normal -5.720505e+00 7.455067e+00 3.390944e+00
    outer loop
      vertex   -6.250000e-01 1.082532e+00 2.904911e+01
      vertex   -8.838830e-01 8.838830e-01 2.904911e+01
      vertex   0.000000e+00 0.000000e+00 3.248346e+01
    endloop
  endfacet
  facet normal -6.656277e-01 5.107569e-01 3.027613e-01
    outer loop
      vertex   0.000000e+00 0.000000e+00 3.248346e+01
      vertex   -8.838830e-01 8.838830e-01 2.904911e+01
      vertex   -1.082532e+00 6.250000e-01 2.904911e+01
    endloop
  endfacet
  facet normal -8.681631e+00 3.596037e+00 3.390944e+00
    outer loop
      vertex   -1.082532e+00 6.250000e-01 2.904911e+01
      vertex   -1.207407e+00 3.235240e-01 2.904911e+01
      vertex   0.000000e+00 0.000000e+00 3.248346e+01
    endloop
  endfacet
  facet normal -9.316532e+00 1.226551e+00 3.390944e+00
    outer loop
      vertex   -1.207407e+00 3.235240e-01 2.904911e+01
      vertex   -1.250000e+00 0.000000e+00 2.904911e+01
      vertex   0.000000e+00 0.000000e+00 3.248346e+01
    endloop
  endfacet
  facet normal -9.316532e+00 -1.226551e+00 3.390944e+00
    outer loop
      vertex   -1.250000e+00 0.000000e+00 2.904911e+01
      vertex   -1.207407e+00 -3.235240e-01 2.904911e+01
      vertex   0.000000e+00 0.000000e+00 3.248346e+01
    endloop
  endfacet
  facet normal -7.751408e-01 -3.210727e-01 3.027610e-01
    outer loop
      vertex   0.000000e+00 0.000000e+00 3.248346e+01
      vertex   -1.207407e+00 -3.235240e-01 2.904911e+01
      vertex   -1.082532e+00 -6.250000e-01 2.904911e+01
    endloop
  endfacet
  facet normal -6.656277e-01 -5.107569e-01 3.027613e-01
    outer loop
      vertex   0.000000e+00 0.000000e+00 3.248346e+01
      vertex   -1.082532e+00 -6.250000e-01 2.904911e+01
      vertex   -8.838830e-01 -8.838830e-01 2.904911e+01
    endloop
  endfacet
  facet normal -5.720505e+00 -7.455067e+00 3.390944e+00
    outer loop
      vertex   -6.250000e-01 -1.082532e+00 2.904911e+01
      vertex   0.000000e+00 0.000000e+00 3.248346e+01
      vertex   -8.838830e-01 -8.838830e-01 2.904911e+01
    endloop
  endfacet
  facet normal -3.596037e+00 -8.681631e+00 3.390944e+00
    outer loop
      vertex   -6.250000e-01 -1.082532e+00 2.904911e+01
      vertex   -3.235240e-01 -1.207407e+00 2.904911e+01
      vertex   0.000000e+00 0.000000e+00 3.248346e+01
    endloop
  endfacet
  facet normal -1.226551e+00 -9.316532e+00 3.390944e+00
    outer loop
      vertex   -3.235240e-01 -1.207407e+00 2.904911e+01
      vertex   0.000000e+00 -1.250000e+00 2.904911e+01
      vertex   0.000000e+00 0.000000e+00 3.248346e+01
    endloop
  endfacet
  facet normal 1.226551e+00 -9.316532e+00 3.390944e+00
    outer loop
      vertex   0.000000e+00 -1.250000e+00 2.904911e+01
      vertex   3.235240e-01 -1.207407e+00 2.904911e+01
      vertex   0.000000e+00 0.000000e+00 3.248346e+01
    endloop
  endfacet
  facet normal 3.210727e-01 -7.751408e-01 3.027610e-01
    outer loop
      vertex   0.000000e+00 0.000000e+00 3.248346e+01
      vertex   3.235240e-01 -1.207407e+00 2.904911e+01
      vertex   6.250000e-01 -1.082532e+00 2.904911e+01
    endloop
  endfacet
  facet normal 8.681632e+00 -3.596037e+00 3.390944e+00
    outer loop
      vertex   1.207407e+00 -3.235240e-01 2.904911e+01
      vertex   0.000000e+00 0.000000e+00 3.248346e+01
      vertex   1.082532e+00 -6.250000e-01 2.904911e+01
    endloop
  endfacet
  facet normal 9.316532e+00 -1.226551e+00 3.390944e+00
    outer loop
      vertex   1.207407e+00 -3.235240e-01 2.904911e+01
      vertex   1.250000e+00 0.000000e+00 2.904911e+01
      vertex   0.000000e+00 0.000000e+00 3.248346e+01
    endloop
  endfacet
  facet normal 7.455067e+00 -5.720505e+00 3.390944e+00
    outer loop
      vertex   1.082532e+00 -6.250000e-01 2.904911e+01
      vertex   0.000000e+00 0.000000e+00 3.248346e+01
      vertex   8.838830e-01 -8.838830e-01 2.904911e+01
    endloop
  endfacet
  facet normal 9.316532e+00 1.226551e+00 3.390944e+00
    outer loop
      vertex   1.207407e+00 3.235240e-01 2.904911e+01
      vertex   0.000000e+00 0.000000e+00 3.248346e+01
      vertex   1.250000e+00 0.000000e+00 2.904911e+01
    endloop
  endfacet
  facet normal 3.596037e+00 8.681632e+00 3.390944e+00
    outer loop
      vertex   3.235240e-01 1.207407e+00 2.904911e+01
      vertex   0.000000e+00 0.000000e+00 3.248346e+01
      vertex   6.250000e-01 1.082532e+00 2.904911e+01
    endloop
  endfacet
  facet normal 5.720506e+00 -7.455067e+00 3.390944e+00
    outer loop
      vertex   8.838830e-01 -8.838830e-01 2.904911e+01
      vertex   0.000000e+00 0.000000e+00 3.248346e+01
      vertex   6.250000e-01 -1.082532e+00 2.904911e+01
    endloop
  endfacet
  facet normal 9.238639e+00 3.826756e+00 4.336809e-18
    outer loop
      vertex   1.082532e+00 6.250000e-01 2.904911e+01
      vertex   1.207407e+00 3.235240e-01 2.904911e+01
      vertex   1.207407e+00 3.235240e-01 -2.620000e+01
    endloop
  endfacet
  facet normal 5.855630e-02 7.709121e-03 0.000000e+00
    outer loop
      vertex   1.207407e+00 3.235240e-01 -2.620000e+01
      vertex   1.207407e+00 3.235240e-01 2.904911e+01
      vertex   1.250000e+00 0.000000e+00 2.904911e+01
    endloop
  endfacet
  facet normal 9.914275e+00 1.305246e+00 0.000000e+00
    outer loop
      vertex   1.207407e+00 3.235240e-01 -2.620000e+01
      vertex   1.250000e+00 0.000000e+00 2.904911e+01
      vertex   1.250000e+00 0.000000e+00 -2.620000e+01
    endloop
  endfacet
  facet normal 5.855630e-02 -7.709121e-03 0.000000e+00
    outer loop
      vertex   1.250000e+00 0.000000e+00 -2.620000e+01
      vertex   1.250000e+00 0.000000e+00 2.904911e+01
      vertex   1.207407e+00 -3.235240e-01 2.904911e+01
    endloop
  endfacet
  facet normal 9.914275e+00 -1.305246e+00 0.000000e+00
    outer loop
      vertex   1.250000e+00 0.000000e+00 -2.620000e+01
      vertex   1.207407e+00 -3.235240e-01 2.904911e+01
      vertex   1.207407e+00 -3.235240e-01 -2.620000e+01
    endloop
  endfacet
  facet normal 9.238800e+00 -3.826823e+00 0.000000e+00
    outer loop
      vertex   1.207407e+00 -3.235240e-01 -2.620000e+01
      vertex   1.207407e+00 -3.235240e-01 2.904911e+01
      vertex   1.082532e+00 -6.250000e-01 -2.620000e+01
    endloop
  endfacet
  facet normal 9.238639e+00 3.826756e+00 4.336809e-18
    outer loop
      vertex   1.207407e+00 3.235240e-01 -2.620000e+01
      vertex   1.082532e+00 6.250000e-01 -2.620000e+01
      vertex   1.082532e+00 6.250000e-01 2.904911e+01
    endloop
  endfacet
  facet normal 4.685659e-02 3.595452e-02 0.000000e+00
    outer loop
      vertex   1.082532e+00 6.250000e-01 2.904911e+01
      vertex   1.082532e+00 6.250000e-01 -2.620000e+01
      vertex   8.838830e-01 8.838830e-01 -2.620000e+01
    endloop
  endfacet
  facet normal 7.933379e+00 6.087529e+00 -4.336809e-18
    outer loop
      vertex   1.082532e+00 6.250000e-01 2.904911e+01
      vertex   8.838830e-01 8.838830e-01 -2.620000e+01
      vertex   8.838830e-01 8.838830e-01 2.904911e+01
    endloop
  endfacet
  facet normal 3.595452e-02 4.685659e-02 0.000000e+00
    outer loop
      vertex   8.838830e-01 8.838830e-01 2.904911e+01
      vertex   8.838830e-01 8.838830e-01 -2.620000e+01
      vertex   6.250000e-01 1.082532e+00 -2.620000e+01
    endloop
  endfacet
  facet normal 6.087529e+00 7.933379e+00 4.336809e-18
    outer loop
      vertex   8.838830e-01 8.838830e-01 2.904911e+01
      vertex   6.250000e-01 1.082532e+00 -2.620000e+01
      vertex   6.250000e-01 1.082532e+00 2.904911e+01
    endloop
  endfacet
  facet normal 2.260178e-02 5.456571e-02 0.000000e+00
    outer loop
      vertex   6.250000e-01 1.082532e+00 2.904911e+01
      vertex   6.250000e-01 1.082532e+00 -2.620000e+01
      vertex   3.235240e-01 1.207407e+00 -2.620000e+01
    endloop
  endfacet
  facet normal 3.826756e+00 9.238639e+00 4.336809e-18
    outer loop
      vertex   6.250000e-01 1.082532e+00 2.904911e+01
      vertex   3.235240e-01 1.207407e+00 -2.620000e+01
      vertex   3.235240e-01 1.207407e+00 2.904911e+01
    endloop
  endfacet
  facet normal 1.305268e+00 9.914448e+00 0.000000e+00
    outer loop
      vertex   3.235240e-01 1.207407e+00 2.904911e+01
      vertex   3.235240e-01 1.207407e+00 -2.620000e+01
      vertex   0.000000e+00 1.250000e+00 2.904911e+01
    endloop
  endfacet
  facet normal 1.305246e+00 9.914275e+00 0.000000e+00
    outer loop
      vertex   3.235240e-01 1.207407e+00 -2.620000e+01
      vertex   0.000000e+00 1.250000e+00 -2.620000e+01
      vertex   0.000000e+00 1.250000e+00 2.904911e+01
    endloop
  endfacet
  facet normal -7.709121e-03 5.855630e-02 0.000000e+00
    outer loop
      vertex   0.000000e+00 1.250000e+00 2.904911e+01
      vertex   0.000000e+00 1.250000e+00 -2.620000e+01
      vertex   -3.235240e-01 1.207407e+00 -2.620000e+01
    endloop
  endfacet
  facet normal -1.305246e+00 9.914275e+00 0.000000e+00
    outer loop
      vertex   0.000000e+00 1.250000e+00 2.904911e+01
      vertex   -3.235240e-01 1.207407e+00 -2.620000e+01
      vertex   -3.235240e-01 1.207407e+00 2.904911e+01
    endloop
  endfacet
  facet normal -2.260178e-02 5.456571e-02 0.000000e+00
    outer loop
      vertex   -3.235240e-01 1.207407e+00 2.904911e+01
      vertex   -3.235240e-01 1.207407e+00 -2.620000e+01
      vertex   -6.250000e-01 1.082532e+00 -2.620000e+01
    endloop
  endfacet
  facet normal -3.826756e+00 9.238639e+00 -4.336809e-18
    outer loop
      vertex   -3.235240e-01 1.207407e+00 2.904911e+01
      vertex   -6.250000e-01 1.082532e+00 -2.620000e+01
      vertex   -6.250000e-01 1.082532e+00 2.904911e+01
    endloop
  endfacet
  facet normal -6.087635e+00 7.933517e+00 0.000000e+00
    outer loop
      vertex   -6.250000e-01 1.082532e+00 2.904911e+01
      vertex   -6.250000e-01 1.082532e+00 -2.620000e+01
      vertex   -8.838830e-01 8.838830e-01 2.904911e+01
    endloop
  endfacet
  facet normal -6.087529e+00 7.933379e+00 4.336809e-18
    outer loop
      vertex   -6.250000e-01 1.082532e+00 -2.620000e+01
      vertex   -8.838830e-01 8.838830e-01 -2.620000e+01
      vertex   -8.838830e-01 8.838830e-01 2.904911e+01
    endloop
  endfacet
  facet normal -4.685659e-02 3.595452e-02 0.000000e+00
    outer loop
      vertex   -8.838830e-01 8.838830e-01 2.904911e+01
      vertex   -8.838830e-01 8.838830e-01 -2.620000e+01
      vertex   -1.082532e+00 6.250000e-01 -2.620000e+01
    endloop
  endfacet
  facet normal -7.933379e+00 6.087529e+00 4.336809e-18
    outer loop
      vertex   -8.838830e-01 8.838830e-01 2.904911e+01
      vertex   -1.082532e+00 6.250000e-01 -2.620000e+01
      vertex   -1.082532e+00 6.250000e-01 2.904911e+01
    endloop
  endfacet
  facet normal -5.456571e-02 2.260178e-02 0.000000e+00
    outer loop
      vertex   -1.082532e+00 6.250000e-01 2.904911e+01
      vertex   -1.082532e+00 6.250000e-01 -2.620000e+01
      vertex   -1.207407e+00 3.235240e-01 -2.620000e+01
    endloop
  endfacet
  facet normal -9.238639e+00 3.826756e+00 4.336809e-18
    outer loop
      vertex   -1.082532e+00 6.250000e-01 2.904911e+01
      vertex   -1.207407e+00 3.235240e-01 -2.620000e+01
      vertex   -1.207407e+00 3.235240e-01 2.904911e+01
    endloop
  endfacet
  facet normal -9.914448e+00 1.305268e+00 0.000000e+00
    outer loop
      vertex   -1.207407e+00 3.235240e-01 2.904911e+01
      vertex   -1.207407e+00 3.235240e-01 -2.620000e+01
      vertex   -1.250000e+00 0.000000e+00 2.904911e+01
    endloop
  endfacet
  facet normal -9.914275e+00 1.305246e+00 0.000000e+00
    outer loop
      vertex   -1.207407e+00 3.235240e-01 -2.620000e+01
      vertex   -1.250000e+00 0.000000e+00 -2.620000e+01
      vertex   -1.250000e+00 0.000000e+00 2.904911e+01
    endloop
  endfacet
  facet normal -9.914448e+00 -1.305268e+00 -0.000000e+00
    outer loop
      vertex   -1.250000e+00 0.000000e+00 2.904911e+01
      vertex   -1.250000e+00 0.000000e+00 -2.620000e+01
      vertex   -1.207407e+00 -3.235240e-01 2.904911e+01
    endloop
  endfacet
  facet normal -9.914275e+00 -1.305246e+00 0.000000e+00
    outer loop
      vertex   -1.250000e+00 0.000000e+00 -2.620000e+01
      vertex   -1.207407e+00 -3.235240e-01 -2.620000e+01
      vertex   -1.207407e+00 -3.235240e-01 2.904911e+01
    endloop
  endfacet
  facet normal -5.456571e-02 -2.260178e-02 -0.000000e+00
    outer loop
      vertex   -1.207407e+00 -3.235240e-01 2.904911e+01
      vertex   -1.207407e+00 -3.235240e-01 -2.620000e+01
      vertex   -1.082532e+00 -6.250000e-01 -2.620000e+01
    endloop
  endfacet
  facet normal -9.238639e+00 -3.826756e+00 -4.336809e-18
    outer loop
      vertex   -1.207407e+00 -3.235240e-01 2.904911e+01
      vertex   -1.082532e+00 -6.250000e-01 -2.620000e+01
      vertex   -1.082532e+00 -6.250000e-01 2.904911e+01
    endloop
  endfacet
  facet normal -4.685659e-02 -3.595452e-02 -0.000000e+00
    outer loop
      vertex   -1.082532e+00 -6.250000e-01 2.904911e+01
      vertex   -1.082532e+00 -6.250000e-01 -2.620000e+01
      vertex   -8.838830e-01 -8.838830e-01 -2.620000e+01
    endloop
  endfacet
  facet normal -7.933379e+00 -6.087529e+00 -4.336809e-18
    outer loop
      vertex   -1.082532e+00 -6.250000e-01 2.904911e+01
      vertex   -8.838830e-01 -8.838830e-01 -2.620000e+01
      vertex   -8.838830e-01 -8.838830e-01 2.904911e+01
    endloop
  endfacet
  facet normal -6.087635e+00 -7.933517e+00 -0.000000e+00
    outer loop
      vertex   -8.838830e-01 -8.838830e-01 2.904911e+01
      vertex   -8.838830e-01 -8.838830e-01 -2.620000e+01
      vertex   -6.250000e-01 -1.082532e+00 2.904911e+01
    endloop
  endfacet
  facet normal -6.087529e+00 -7.933379e+00 -4.336809e-18
    outer loop
      vertex   -8.838830e-01 -8.838830e-01 -2.620000e+01
      vertex   -6.250000e-01 -1.082532e+00 -2.620000e+01
      vertex   -6.250000e-01 -1.082532e+00 2.904911e+01
    endloop
  endfacet
  facet normal -2.260178e-02 -5.456571e-02 -0.000000e+00
    outer loop
      vertex   -6.250000e-01 -1.082532e+00 2.904911e+01
      vertex   -6.250000e-01 -1.082532e+00 -2.620000e+01
      vertex   -3.235240e-01 -1.207407e+00 -2.620000e+01
    endloop
  endfacet
  facet normal -3.826756e+00 -9.238639e+00 4.336809e-18
    outer loop
      vertex   -6.250000e-01 -1.082532e+00 2.904911e+01
      vertex   -3.235240e-01 -1.207407e+00 -2.620000e+01
      vertex   -3.235240e-01 -1.207407e+00 2.904911e+01
    endloop
  endfacet
  facet normal -7.709121e-03 -5.855630e-02 -0.000000e+00
    outer loop
      vertex   -3.235240e-01 -1.207407e+00 2.904911e+01
      vertex   -3.235240e-01 -1.207407e+00 -2.620000e+01
      vertex   0.000000e+00 -1.250000e+00 -2.620000e+01
    endloop
  endfacet
  facet normal -1.305246e+00 -9.914275e+00 0.000000e+00
    outer loop
      vertex   -3.235240e-01 -1.207407e+00 2.904911e+01
      vertex   0.000000e+00 -1.250000e+00 -2.620000e+01
      vertex   0.000000e+00 -1.250000e+00 2.904911e+01
    endloop
  endfacet
  facet normal 1.305268e+00 -9.914448e+00 0.000000e+00
    outer loop
      vertex   0.000000e+00 -1.250000e+00 2.904911e+01
      vertex   0.000000e+00 -1.250000e+00 -2.620000e+01
      vertex   3.235240e-01 -1.207407e+00 2.904911e+01
    endloop
  endfacet
  facet normal 1.305246e+00 -9.914275e+00 0.000000e+00
    outer loop
      vertex   0.000000e+00 -1.250000e+00 -2.620000e+01
      vertex   3.235240e-01 -1.207407e+00 -2.620000e+01
      vertex   3.235240e-01 -1.207407e+00 2.904911e+01
    endloop
  endfacet
  facet normal 2.260178e-02 -5.456571e-02 0.000000e+00
    outer loop
      vertex   3.235240e-01 -1.207407e+00 2.904911e+01
      vertex   3.235240e-01 -1.207407e+00 -2.620000e+01
      vertex   6.250000e-01 -1.082532e+00 -2.620000e+01
    endloop
  endfacet
  facet normal 3.826756e+00 -9.238639e+00 -4.336809e-18
    outer loop
      vertex   3.235240e-01 -1.207407e+00 2.904911e+01
      vertex   6.250000e-01 -1.082532e+00 -2.620000e+01
      vertex   6.250000e-01 -1.082532e+00 2.904911e+01
    endloop
  endfacet
  facet normal 3.595452e-02 -4.685659e-02 0.000000e+00
    outer loop
      vertex   6.250000e-01 -1.082532e+00 2.904911e+01
      vertex   6.250000e-01 -1.082532e+00 -2.620000e+01
      vertex   8.838830e-01 -8.838830e-01 -2.620000e+01
    endloop
  endfacet
  facet normal 6.087529e+00 -7.933379e+00 -4.336809e-18
    outer loop
      vertex   6.250000e-01 -1.082532e+00 2.904911e+01
      vertex   8.838830e-01 -8.838830e-01 -2.620000e+01
      vertex   8.838830e-01 -8.838830e-01 2.904911e+01
    endloop
  endfacet
  facet normal 4.685659e-02 -3.595452e-02 0.000000e+00
    outer loop
      vertex   8.838830e-01 -8.838830e-01 2.904911e+01
      vertex   8.838830e-01 -8.838830e-01 -2.620000e+01
      vertex   1.082532e+00 -6.250000e-01 -2.620000e+01
    endloop
  endfacet
  facet normal 7.933379e+00 -6.087529e+00 4.336809e-18
    outer loop
      vertex   8.838830e-01 -8.838830e-01 2.904911e+01
      vertex   1.082532e+00 -6.250000e-01 -2.620000e+01
      vertex   1.082532e+00 -6.250000e-01 2.904911e+01
    endloop
  endfacet
  facet normal 9.238800e+00 -3.826823e+00 0.000000e+00
    outer loop
      vertex   1.082532e+00 -6.250000e-01 2.904911e+01
      vertex   1.082532e+00 -6.250000e-01 -2.620000e+01
      vertex   1.207407e+00 -3.235240e-01 2.904911e+01
    endloop
  endfacet
  facet normal 2.628529e+00 2.016952e+00 9.025052e+00
    outer loop
      vertex   8.838830e-01 8.838830e-01 -2.620000e+01
      vertex   1.082532e+00 6.250000e-01 -2.620000e+01
      vertex   2.727980e+00 1.575000e+00 -2.689154e+01
    endloop
  endfacet
  facet normal 4.940058e-01 2.046232e-01 1.456530e+00
    outer loop
      vertex   2.727980e+00 1.575000e+00 -2.689154e+01
      vertex   1.082532e+00 6.250000e-01 -2.620000e+01
      vertex   1.207407e+00 3.235240e-01 -2.620000e+01
    endloop
  endfacet
  facet normal 3.060994e+00 1.267904e+00 9.025058e+00
    outer loop
      vertex   2.727980e+00 1.575000e+00 -2.689154e+01
      vertex   1.207407e+00 3.235240e-01 -2.620000e+01
      vertex   3.042666e+00 8.152800e-01 -2.689154e+01
    endloop
  endfacet
  facet normal 5.301343e-01 6.979373e-02 1.456533e+00
    outer loop
      vertex   3.042666e+00 8.152800e-01 -2.689154e+01
      vertex   1.207407e+00 3.235240e-01 -2.620000e+01
      vertex   1.250000e+00 0.000000e+00 -2.620000e+01
    endloop
  endfacet
  facet normal 3.284851e+00 4.324612e-01 9.025060e+00
    outer loop
      vertex   3.042666e+00 8.152800e-01 -2.689154e+01
      vertex   1.250000e+00 0.000000e+00 -2.620000e+01
      vertex   3.150000e+00 0.000000e+00 -2.689154e+01
    endloop
  endfacet
  facet normal 5.301340e-01 -6.979369e-02 1.456532e+00
    outer loop
      vertex   3.150000e+00 0.000000e+00 -2.689154e+01
      vertex   1.250000e+00 0.000000e+00 -2.620000e+01
      vertex   1.207407e+00 -3.235240e-01 -2.620000e+01
    endloop
  endfacet
  facet normal 3.284850e+00 -4.324611e-01 9.025057e+00
    outer loop
      vertex   3.150000e+00 0.000000e+00 -2.689154e+01
      vertex   1.207407e+00 -3.235240e-01 -2.620000e+01
      vertex   3.042666e+00 -8.152800e-01 -2.689154e+01
    endloop
  endfacet
  facet normal 4.940060e-01 -2.046233e-01 1.456531e+00
    outer loop
      vertex   3.042666e+00 -8.152800e-01 -2.689154e+01
      vertex   1.207407e+00 -3.235240e-01 -2.620000e+01
      vertex   1.082532e+00 -6.250000e-01 -2.620000e+01
    endloop
  endfacet
  facet normal 3.060995e+00 -1.267904e+00 9.025060e+00
    outer loop
      vertex   3.042666e+00 -8.152800e-01 -2.689154e+01
      vertex   1.082532e+00 -6.250000e-01 -2.620000e+01
      vertex   2.727980e+00 -1.575000e+00 -2.689154e+01
    endloop
  endfacet
  facet normal 2.713426e+00 -2.082087e+00 9.316534e+00
    outer loop
      vertex   2.727980e+00 -1.575000e+00 -2.689154e+01
      vertex   1.082532e+00 -6.250000e-01 -2.620000e+01
      vertex   2.227386e+00 -2.227386e+00 -2.689154e+01
    endloop
  endfacet
  facet normal 2.628533e+00 2.016946e+00 9.025058e+00
    outer loop
      vertex   2.727980e+00 1.575000e+00 -2.689154e+01
      vertex   2.227386e+00 2.227386e+00 -2.689154e+01
      vertex   8.838830e-01 8.838830e-01 -2.620000e+01
    endloop
  endfacet
  facet normal 8.202851e-01 1.069015e+00 3.670459e+00
    outer loop
      vertex   8.838830e-01 8.838830e-01 -2.620000e+01
      vertex   2.227386e+00 2.227386e+00 -2.689154e+01
      vertex   1.575000e+00 2.727980e+00 -2.689154e+01
    endloop
  endfacet
  facet normal 2.016952e+00 2.628529e+00 9.025052e+00
    outer loop
      vertex   8.838830e-01 8.838830e-01 -2.620000e+01
      vertex   1.575000e+00 2.727980e+00 -2.689154e+01
      vertex   6.250000e-01 1.082532e+00 -2.620000e+01
    endloop
  endfacet
  facet normal 5.156522e-01 1.244896e+00 3.670461e+00
    outer loop
      vertex   6.250000e-01 1.082532e+00 -2.620000e+01
      vertex   1.575000e+00 2.727980e+00 -2.689154e+01
      vertex   8.152800e-01 3.042666e+00 -2.689154e+01
    endloop
  endfacet
  facet normal 1.267902e+00 3.060996e+00 9.025062e+00
    outer loop
      vertex   6.250000e-01 1.082532e+00 -2.620000e+01
      vertex   8.152800e-01 3.042666e+00 -2.689154e+01
      vertex   3.235240e-01 1.207407e+00 -2.620000e+01
    endloop
  endfacet
  facet normal 1.758805e-01 1.335937e+00 3.670460e+00
    outer loop
      vertex   3.235240e-01 1.207407e+00 -2.620000e+01
      vertex   8.152800e-01 3.042666e+00 -2.689154e+01
      vertex   0.000000e+00 3.150000e+00 -2.689154e+01
    endloop
  endfacet
  facet normal 4.324608e-01 3.284850e+00 9.025057e+00
    outer loop
      vertex   3.235240e-01 1.207407e+00 -2.620000e+01
      vertex   0.000000e+00 3.150000e+00 -2.689154e+01
      vertex   0.000000e+00 1.250000e+00 -2.620000e+01
    endloop
  endfacet
  facet normal -1.758805e-01 1.335937e+00 3.670461e+00
    outer loop
      vertex   0.000000e+00 1.250000e+00 -2.620000e+01
      vertex   0.000000e+00 3.150000e+00 -2.689154e+01
      vertex   -8.152800e-01 3.042666e+00 -2.689154e+01
    endloop
  endfacet
  facet normal -4.324610e-01 3.284851e+00 9.025060e+00
    outer loop
      vertex   0.000000e+00 1.250000e+00 -2.620000e+01
      vertex   -8.152800e-01 3.042666e+00 -2.689154e+01
      vertex   -3.235240e-01 1.207407e+00 -2.620000e+01
    endloop
  endfacet
  facet normal -1.308850e+00 3.159854e+00 9.316536e+00
    outer loop
      vertex   -3.235240e-01 1.207407e+00 -2.620000e+01
      vertex   -8.152800e-01 3.042666e+00 -2.689154e+01
      vertex   -6.250000e-01 1.082532e+00 -2.620000e+01
    endloop
  endfacet
  facet normal -1.267904e+00 3.060995e+00 9.025060e+00
    outer loop
      vertex   -8.152800e-01 3.042666e+00 -2.689154e+01
      vertex   -1.575000e+00 2.727980e+00 -2.689154e+01
      vertex   -6.250000e-01 1.082532e+00 -2.620000e+01
    endloop
  endfacet
  facet normal -8.202854e-01 1.069016e+00 3.670460e+00
    outer loop
      vertex   -6.250000e-01 1.082532e+00 -2.620000e+01
      vertex   -1.575000e+00 2.727980e+00 -2.689154e+01
      vertex   -2.227386e+00 2.227386e+00 -2.689154e+01
    endloop
  endfacet
  facet normal -2.016953e+00 2.628530e+00 9.025065e+00
    outer loop
      vertex   -6.250000e-01 1.082532e+00 -2.620000e+01
      vertex   -2.227386e+00 2.227386e+00 -2.689154e+01
      vertex   -8.838830e-01 8.838830e-01 -2.620000e+01
    endloop
  endfacet
  facet normal -1.069015e+00 8.202851e-01 3.670459e+00
    outer loop
      vertex   -8.838830e-01 8.838830e-01 -2.620000e+01
      vertex   -2.227386e+00 2.227386e+00 -2.689154e+01
      vertex   -2.727980e+00 1.575000e+00 -2.689154e+01
    endloop
  endfacet
  facet normal -2.628529e+00 2.016952e+00 9.025052e+00
    outer loop
      vertex   -8.838830e-01 8.838830e-01 -2.620000e+01
      vertex   -2.727980e+00 1.575000e+00 -2.689154e+01
      vertex   -1.082532e+00 6.250000e-01 -2.620000e+01
    endloop
  endfacet
  facet normal -1.244896e+00 5.156522e-01 3.670461e+00
    outer loop
      vertex   -1.082532e+00 6.250000e-01 -2.620000e+01
      vertex   -2.727980e+00 1.575000e+00 -2.689154e+01
      vertex   -3.042666e+00 8.152800e-01 -2.689154e+01
    endloop
  endfacet
  facet normal -3.060996e+00 1.267902e+00 9.025062e+00
    outer loop
      vertex   -1.082532e+00 6.250000e-01 -2.620000e+01
      vertex   -3.042666e+00 8.152800e-01 -2.689154e+01
      vertex   -1.207407e+00 3.235240e-01 -2.620000e+01
    endloop
  endfacet
  facet normal -3.390939e+00 4.464279e-01 9.316536e+00
    outer loop
      vertex   -1.207407e+00 3.235240e-01 -2.620000e+01
      vertex   -3.042666e+00 8.152800e-01 -2.689154e+01
      vertex   -1.250000e+00 0.000000e+00 -2.620000e+01
    endloop
  endfacet
  facet normal -3.284851e+00 4.324612e-01 9.025060e+00
    outer loop
      vertex   -3.042666e+00 8.152800e-01 -2.689154e+01
      vertex   -3.150000e+00 0.000000e+00 -2.689154e+01
      vertex   -1.250000e+00 0.000000e+00 -2.620000e+01
    endloop
  endfacet
  facet normal -3.390938e+00 -4.464278e-01 9.316534e+00
    outer loop
      vertex   -1.250000e+00 0.000000e+00 -2.620000e+01
      vertex   -3.150000e+00 0.000000e+00 -2.689154e+01
      vertex   -1.207407e+00 -3.235240e-01 -2.620000e+01
    endloop
  endfacet
  facet normal -3.284850e+00 -4.324611e-01 9.025057e+00
    outer loop
      vertex   -3.150000e+00 0.000000e+00 -2.689154e+01
      vertex   -3.042666e+00 -8.152800e-01 -2.689154e+01
      vertex   -1.207407e+00 -3.235240e-01 -2.620000e+01
    endloop
  endfacet
  facet normal -1.244896e+00 -5.156521e-01 3.670460e+00
    outer loop
      vertex   -1.207407e+00 -3.235240e-01 -2.620000e+01
      vertex   -3.042666e+00 -8.152800e-01 -2.689154e+01
      vertex   -2.727980e+00 -1.575000e+00 -2.689154e+01
    endloop
  endfacet
  facet normal -3.060995e+00 -1.267901e+00 9.025055e+00
    outer loop
      vertex   -1.207407e+00 -3.235240e-01 -2.620000e+01
      vertex   -2.727980e+00 -1.575000e+00 -2.689154e+01
      vertex   -1.082532e+00 -6.250000e-01 -2.620000e+01
    endloop
  endfacet
  facet normal -1.069016e+00 -8.202854e-01 3.670460e+00
    outer loop
      vertex   -1.082532e+00 -6.250000e-01 -2.620000e+01
      vertex   -2.727980e+00 -1.575000e+00 -2.689154e+01
      vertex   -2.227386e+00 -2.227386e+00 -2.689154e+01
    endloop
  endfacet
  facet normal -2.628530e+00 -2.016953e+00 9.025065e+00
    outer loop
      vertex   -1.082532e+00 -6.250000e-01 -2.620000e+01
      vertex   -2.227386e+00 -2.227386e+00 -2.689154e+01
      vertex   -8.838830e-01 -8.838830e-01 -2.620000e+01
    endloop
  endfacet
  facet normal -8.202851e-01 -1.069015e+00 3.670459e+00
    outer loop
      vertex   -8.838830e-01 -8.838830e-01 -2.620000e+01
      vertex   -2.227386e+00 -2.227386e+00 -2.689154e+01
      vertex   -1.575000e+00 -2.727980e+00 -2.689154e+01
    endloop
  endfacet
  facet normal -2.016952e+00 -2.628529e+00 9.025052e+00
    outer loop
      vertex   -8.838830e-01 -8.838830e-01 -2.620000e+01
      vertex   -1.575000e+00 -2.727980e+00 -2.689154e+01
      vertex   -6.250000e-01 -1.082532e+00 -2.620000e+01
    endloop
  endfacet
  facet normal -1.308850e+00 -3.159854e+00 9.316533e+00
    outer loop
      vertex   -6.250000e-01 -1.082532e+00 -2.620000e+01
      vertex   -1.575000e+00 -2.727980e+00 -2.689154e+01
      vertex   -3.235240e-01 -1.207407e+00 -2.620000e+01
    endloop
  endfacet
  facet normal -1.267904e+00 -3.060994e+00 9.025058e+00
    outer loop
      vertex   -1.575000e+00 -2.727980e+00 -2.689154e+01
      vertex   -8.152800e-01 -3.042666e+00 -2.689154e+01
      vertex   -3.235240e-01 -1.207407e+00 -2.620000e+01
    endloop
  endfacet
  facet normal -1.758805e-01 -1.335937e+00 3.670460e+00
    outer loop
      vertex   -3.235240e-01 -1.207407e+00 -2.620000e+01
      vertex   -8.152800e-01 -3.042666e+00 -2.689154e+01
      vertex   0.000000e+00 -3.150000e+00 -2.689154e+01
    endloop
  endfacet
  facet normal -4.324608e-01 -3.284850e+00 9.025057e+00
    outer loop
      vertex   -3.235240e-01 -1.207407e+00 -2.620000e+01
      vertex   0.000000e+00 -3.150000e+00 -2.689154e+01
      vertex   0.000000e+00 -1.250000e+00 -2.620000e+01
    endloop
  endfacet
  facet normal 1.758805e-01 -1.335937e+00 3.670461e+00
    outer loop
      vertex   0.000000e+00 -1.250000e+00 -2.620000e+01
      vertex   0.000000e+00 -3.150000e+00 -2.689154e+01
      vertex   8.152800e-01 -3.042666e+00 -2.689154e+01
    endloop
  endfacet
  facet normal 4.324610e-01 -3.284851e+00 9.025060e+00
    outer loop
      vertex   0.000000e+00 -1.250000e+00 -2.620000e+01
      vertex   8.152800e-01 -3.042666e+00 -2.689154e+01
      vertex   3.235240e-01 -1.207407e+00 -2.620000e+01
    endloop
  endfacet
  facet normal 5.156521e-01 -1.244896e+00 3.670460e+00
    outer loop
      vertex   3.235240e-01 -1.207407e+00 -2.620000e+01
      vertex   8.152800e-01 -3.042666e+00 -2.689154e+01
      vertex   1.575000e+00 -2.727980e+00 -2.689154e+01
    endloop
  endfacet
  facet normal 1.267901e+00 -3.060995e+00 9.025055e+00
    outer loop
      vertex   3.235240e-01 -1.207407e+00 -2.620000e+01
      vertex   1.575000e+00 -2.727980e+00 -2.689154e+01
      vertex   6.250000e-01 -1.082532e+00 -2.620000e+01
    endloop
  endfacet
  facet normal 8.202854e-01 -1.069016e+00 3.670460e+00
    outer loop
      vertex   6.250000e-01 -1.082532e+00 -2.620000e+01
      vertex   1.575000e+00 -2.727980e+00 -2.689154e+01
      vertex   2.227386e+00 -2.227386e+00 -2.689154e+01
    endloop
  endfacet
  facet normal 2.016953e+00 -2.628530e+00 9.025065e+00
    outer loop
      vertex   6.250000e-01 -1.082532e+00 -2.620000e+01
      vertex   2.227386e+00 -2.227386e+00 -2.689154e+01
      vertex   8.838830e-01 -8.838830e-01 -2.620000e+01
    endloop
  endfacet
  facet normal 2.713421e+00 -2.082093e+00 9.316538e+00
    outer loop
      vertex   8.838830e-01 -8.838830e-01 -2.620000e+01
      vertex   2.227386e+00 -2.227386e+00 -2.689154e+01
      vertex   1.082532e+00 -6.250000e-01 -2.620000e+01
    endloop
  endfacet
  facet normal 5.590472e+00 2.315647e+00 5.551115e-16
    outer loop
      vertex   2.727980e+00 1.575000e+00 -2.689154e+01
      vertex   3.042666e+00 8.152800e-01 -2.689154e+01
      vertex   3.042666e+00 8.152800e-01 -2.751654e+01
    endloop
  endfacet
  facet normal 7.893321e+00 1.039181e+00 0.000000e+00
    outer loop
      vertex   3.042666e+00 8.152800e-01 -2.751654e+01
      vertex   3.042666e+00 8.152800e-01 -2.689154e+01
      vertex   3.150000e+00 0.000000e+00 -2.689154e+01
    endloop
  endfacet
  facet normal 5.999313e+00 7.898290e-01 -1.387779e-16
    outer loop
      vertex   3.042666e+00 8.152800e-01 -2.751654e+01
      vertex   3.150000e+00 0.000000e+00 -2.689154e+01
      vertex   3.150000e+00 0.000000e+00 -2.751654e+01
    endloop
  endfacet
  facet normal 7.893321e+00 -1.039181e+00 0.000000e+00
    outer loop
      vertex   3.150000e+00 0.000000e+00 -2.751654e+01
      vertex   3.150000e+00 0.000000e+00 -2.689154e+01
      vertex   3.042666e+00 -8.152800e-01 -2.689154e+01
    endloop
  endfacet
  facet normal 5.999313e+00 -7.898290e-01 1.387779e-16
    outer loop
      vertex   3.150000e+00 0.000000e+00 -2.751654e+01
      vertex   3.042666e+00 -8.152800e-01 -2.689154e+01
      vertex   3.042666e+00 -8.152800e-01 -2.751654e+01
    endloop
  endfacet
  facet normal 9.238797e+00 -3.826830e+00 0.000000e+00
    outer loop
      vertex   3.042666e+00 -8.152800e-01 -2.751654e+01
      vertex   3.042666e+00 -8.152800e-01 -2.689154e+01
      vertex   2.727980e+00 -1.575000e+00 -2.751654e+01
    endloop
  endfacet
  facet normal 5.590472e+00 2.315647e+00 5.551115e-16
    outer loop
      vertex   3.042666e+00 8.152800e-01 -2.751654e+01
      vertex   2.727980e+00 1.575000e+00 -2.751654e+01
      vertex   2.727980e+00 1.575000e+00 -2.689154e+01
    endloop
  endfacet
  facet normal 6.316226e+00 4.846616e+00 0.000000e+00
    outer loop
      vertex   2.727980e+00 1.575000e+00 -2.689154e+01
      vertex   2.727980e+00 1.575000e+00 -2.751654e+01
      vertex   2.227386e+00 2.227386e+00 -2.751654e+01
    endloop
  endfacet
  facet normal 4.800645e+00 3.683669e+00 0.000000e+00
    outer loop
      vertex   2.727980e+00 1.575000e+00 -2.689154e+01
      vertex   2.227386e+00 2.227386e+00 -2.751654e+01
      vertex   2.227386e+00 2.227386e+00 -2.689154e+01
    endloop
  endfacet
  facet normal 4.846616e+00 6.316226e+00 0.000000e+00
    outer loop
      vertex   2.227386e+00 2.227386e+00 -2.689154e+01
      vertex   2.227386e+00 2.227386e+00 -2.751654e+01
      vertex   1.575000e+00 2.727980e+00 -2.751654e+01
    endloop
  endfacet
  facet normal 3.683669e+00 4.800645e+00 0.000000e+00
    outer loop
      vertex   2.227386e+00 2.227386e+00 -2.689154e+01
      vertex   1.575000e+00 2.727980e+00 -2.751654e+01
      vertex   1.575000e+00 2.727980e+00 -2.689154e+01
    endloop
  endfacet
  facet normal 3.046705e+00 7.355406e+00 0.000000e+00
    outer loop
      vertex   1.575000e+00 2.727980e+00 -2.689154e+01
      vertex   1.575000e+00 2.727980e+00 -2.751654e+01
      vertex   8.152800e-01 3.042666e+00 -2.751654e+01
    endloop
  endfacet
  facet normal 2.315647e+00 5.590472e+00 5.551115e-16
    outer loop
      vertex   1.575000e+00 2.727980e+00 -2.689154e+01
      vertex   8.152800e-01 3.042666e+00 -2.751654e+01
      vertex   8.152800e-01 3.042666e+00 -2.689154e+01
    endloop
  endfacet
  facet normal 1.305269e+00 9.914448e+00 0.000000e+00
    outer loop
      vertex   8.152800e-01 3.042666e+00 -2.689154e+01
      vertex   8.152800e-01 3.042666e+00 -2.751654e+01
      vertex   0.000000e+00 3.150000e+00 -2.689154e+01
    endloop
  endfacet
  facet normal 7.898290e-01 5.999313e+00 -1.387779e-16
    outer loop
      vertex   8.152800e-01 3.042666e+00 -2.751654e+01
      vertex   0.000000e+00 3.150000e+00 -2.751654e+01
      vertex   0.000000e+00 3.150000e+00 -2.689154e+01
    endloop
  endfacet
  facet normal -1.039181e+00 7.893321e+00 0.000000e+00
    outer loop
      vertex   0.000000e+00 3.150000e+00 -2.689154e+01
      vertex   0.000000e+00 3.150000e+00 -2.751654e+01
      vertex   -8.152800e-01 3.042666e+00 -2.751654e+01
    endloop
  endfacet
  facet normal -7.898290e-01 5.999313e+00 -1.387779e-16
    outer loop
      vertex   0.000000e+00 3.150000e+00 -2.689154e+01
      vertex   -8.152800e-01 3.042666e+00 -2.751654e+01
      vertex   -8.152800e-01 3.042666e+00 -2.689154e+01
    endloop
  endfacet
  facet normal -3.046705e+00 7.355406e+00 0.000000e+00
    outer loop
      vertex   -8.152800e-01 3.042666e+00 -2.689154e+01
      vertex   -8.152800e-01 3.042666e+00 -2.751654e+01
      vertex   -1.575000e+00 2.727980e+00 -2.751654e+01
    endloop
  endfacet
  facet normal -2.315647e+00 5.590472e+00 -5.551115e-16
    outer loop
      vertex   -8.152800e-01 3.042666e+00 -2.689154e+01
      vertex   -1.575000e+00 2.727980e+00 -2.751654e+01
      vertex   -1.575000e+00 2.727980e+00 -2.689154e+01
    endloop
  endfacet
  facet normal -6.087618e+00 7.933530e+00 0.000000e+00
    outer loop
      vertex   -1.575000e+00 2.727980e+00 -2.689154e+01
      vertex   -1.575000e+00 2.727980e+00 -2.751654e+01
      vertex   -2.227386e+00 2.227386e+00 -2.689154e+01
    endloop
  endfacet
  facet normal -3.683669e+00 4.800645e+00 0.000000e+00
    outer loop
      vertex   -1.575000e+00 2.727980e+00 -2.751654e+01
      vertex   -2.227386e+00 2.227386e+00 -2.751654e+01
      vertex   -2.227386e+00 2.227386e+00 -2.689154e+01
    endloop
  endfacet
  facet normal -6.316226e+00 4.846616e+00 0.000000e+00
    outer loop
      vertex   -2.227386e+00 2.227386e+00 -2.689154e+01
      vertex   -2.227386e+00 2.227386e+00 -2.751654e+01
      vertex   -2.727980e+00 1.575000e+00 -2.751654e+01
    endloop
  endfacet
  facet normal -4.800645e+00 3.683669e+00 0.000000e+00
    outer loop
      vertex   -2.227386e+00 2.227386e+00 -2.689154e+01
      vertex   -2.727980e+00 1.575000e+00 -2.751654e+01
      vertex   -2.727980e+00 1.575000e+00 -2.689154e+01
    endloop
  endfacet
  facet normal -7.355406e+00 3.046705e+00 0.000000e+00
    outer loop
      vertex   -2.727980e+00 1.575000e+00 -2.689154e+01
      vertex   -2.727980e+00 1.575000e+00 -2.751654e+01
      vertex   -3.042666e+00 8.152800e-01 -2.751654e+01
    endloop
  endfacet
  facet normal -5.590472e+00 2.315647e+00 5.551115e-16
    outer loop
      vertex   -2.727980e+00 1.575000e+00 -2.689154e+01
      vertex   -3.042666e+00 8.152800e-01 -2.751654e+01
      vertex   -3.042666e+00 8.152800e-01 -2.689154e+01
    endloop
  endfacet
  facet normal -9.914448e+00 1.305269e+00 0.000000e+00
    outer loop
      vertex   -3.042666e+00 8.152800e-01 -2.689154e+01
      vertex   -3.042666e+00 8.152800e-01 -2.751654e+01
      vertex   -3.150000e+00 0.000000e+00 -2.689154e+01
    endloop
  endfacet
  facet normal -5.999313e+00 7.898290e-01 -1.387779e-16
    outer loop
      vertex   -3.042666e+00 8.152800e-01 -2.751654e+01
      vertex   -3.150000e+00 0.000000e+00 -2.751654e+01
      vertex   -3.150000e+00 0.000000e+00 -2.689154e+01
    endloop
  endfacet
  facet normal -9.914448e+00 -1.305269e+00 -0.000000e+00
    outer loop
      vertex   -3.150000e+00 0.000000e+00 -2.689154e+01
      vertex   -3.150000e+00 0.000000e+00 -2.751654e+01
      vertex   -3.042666e+00 -8.152800e-01 -2.689154e+01
    endloop
  endfacet
  facet normal -5.999313e+00 -7.898290e-01 1.387779e-16
    outer loop
      vertex   -3.150000e+00 0.000000e+00 -2.751654e+01
      vertex   -3.042666e+00 -8.152800e-01 -2.751654e+01
      vertex   -3.042666e+00 -8.152800e-01 -2.689154e+01
    endloop
  endfacet
  facet normal -7.355406e+00 -3.046705e+00 -0.000000e+00
    outer loop
      vertex   -3.042666e+00 -8.152800e-01 -2.689154e+01
      vertex   -3.042666e+00 -8.152800e-01 -2.751654e+01
      vertex   -2.727980e+00 -1.575000e+00 -2.751654e+01
    endloop
  endfacet
  facet normal -5.590472e+00 -2.315647e+00 -5.551115e-16
    outer loop
      vertex   -3.042666e+00 -8.152800e-01 -2.689154e+01
      vertex   -2.727980e+00 -1.575000e+00 -2.751654e+01
      vertex   -2.727980e+00 -1.575000e+00 -2.689154e+01
    endloop
  endfacet
  facet normal -6.316226e+00 -4.846616e+00 -0.000000e+00
    outer loop
      vertex   -2.727980e+00 -1.575000e+00 -2.689154e+01
      vertex   -2.727980e+00 -1.575000e+00 -2.751654e+01
      vertex   -2.227386e+00 -2.227386e+00 -2.751654e+01
    endloop
  endfacet
  facet normal -4.800645e+00 -3.683669e+00 0.000000e+00
    outer loop
      vertex   -2.727980e+00 -1.575000e+00 -2.689154e+01
      vertex   -2.227386e+00 -2.227386e+00 -2.751654e+01
      vertex   -2.227386e+00 -2.227386e+00 -2.689154e+01
    endloop
  endfacet
  facet normal -6.087618e+00 -7.933530e+00 -0.000000e+00
    outer loop
      vertex   -2.227386e+00 -2.227386e+00 -2.689154e+01
      vertex   -2.227386e+00 -2.227386e+00 -2.751654e+01
      vertex   -1.575000e+00 -2.727980e+00 -2.689154e+01
    endloop
  endfacet
  facet normal -3.683669e+00 -4.800645e+00 0.000000e+00
    outer loop
      vertex   -2.227386e+00 -2.227386e+00 -2.751654e+01
      vertex   -1.575000e+00 -2.727980e+00 -2.751654e+01
      vertex   -1.575000e+00 -2.727980e+00 -2.689154e+01
    endloop
  endfacet
  facet normal -3.046705e+00 -7.355406e+00 -0.000000e+00
    outer loop
      vertex   -1.575000e+00 -2.727980e+00 -2.689154e+01
      vertex   -1.575000e+00 -2.727980e+00 -2.751654e+01
      vertex   -8.152800e-01 -3.042666e+00 -2.751654e+01
    endloop
  endfacet
  facet normal -2.315647e+00 -5.590472e+00 5.551115e-16
    outer loop
      vertex   -1.575000e+00 -2.727980e+00 -2.689154e+01
      vertex   -8.152800e-01 -3.042666e+00 -2.751654e+01
      vertex   -8.152800e-01 -3.042666e+00 -2.689154e+01
    endloop
  endfacet
  facet normal -1.039181e+00 -7.893321e+00 -0.000000e+00
    outer loop
      vertex   -8.152800e-01 -3.042666e+00 -2.689154e+01
      vertex   -8.152800e-01 -3.042666e+00 -2.751654e+01
      vertex   0.000000e+00 -3.150000e+00 -2.751654e+01
    endloop
  endfacet
  facet normal -7.898290e-01 -5.999313e+00 1.387779e-16
    outer loop
      vertex   -8.152800e-01 -3.042666e+00 -2.689154e+01
      vertex   0.000000e+00 -3.150000e+00 -2.751654e+01
      vertex   0.000000e+00 -3.150000e+00 -2.689154e+01
    endloop
  endfacet
  facet normal 1.305269e+00 -9.914448e+00 0.000000e+00
    outer loop
      vertex   0.000000e+00 -3.150000e+00 -2.689154e+01
      vertex   0.000000e+00 -3.150000e+00 -2.751654e+01
      vertex   8.152800e-01 -3.042666e+00 -2.689154e+01
    endloop
  endfacet
  facet normal 7.898290e-01 -5.999313e+00 1.387779e-16
    outer loop
      vertex   0.000000e+00 -3.150000e+00 -2.751654e+01
      vertex   8.152800e-01 -3.042666e+00 -2.751654e+01
      vertex   8.152800e-01 -3.042666e+00 -2.689154e+01
    endloop
  endfacet
  facet normal 3.046705e+00 -7.355406e+00 0.000000e+00
    outer loop
      vertex   8.152800e-01 -3.042666e+00 -2.689154e+01
      vertex   8.152800e-01 -3.042666e+00 -2.751654e+01
      vertex   1.575000e+00 -2.727980e+00 -2.751654e+01
    endloop
  endfacet
  facet normal 2.315647e+00 -5.590472e+00 -5.551115e-16
    outer loop
      vertex   8.152800e-01 -3.042666e+00 -2.689154e+01
      vertex   1.575000e+00 -2.727980e+00 -2.751654e+01
      vertex   1.575000e+00 -2.727980e+00 -2.689154e+01
    endloop
  endfacet
  facet normal 4.846616e+00 -6.316226e+00 0.000000e+00
    outer loop
      vertex   1.575000e+00 -2.727980e+00 -2.689154e+01
      vertex   1.575000e+00 -2.727980e+00 -2.751654e+01
      vertex   2.227386e+00 -2.227386e+00 -2.751654e+01
    endloop
  endfacet
  facet normal 3.683669e+00 -4.800645e+00 0.000000e+00
    outer loop
      vertex   1.575000e+00 -2.727980e+00 -2.689154e+01
      vertex   2.227386e+00 -2.227386e+00 -2.751654e+01
      vertex   2.227386e+00 -2.227386e+00 -2.689154e+01
    endloop
  endfacet
  facet normal 6.316226e+00 -4.846616e+00 0.000000e+00
    outer loop
      vertex   2.227386e+00 -2.227386e+00 -2.689154e+01
      vertex   2.227386e+00 -2.227386e+00 -2.751654e+01
      vertex   2.727980e+00 -1.575000e+00 -2.751654e+01
    endloop
  endfacet
  facet normal 4.800645e+00 -3.683669e+00 0.000000e+00
    outer loop
      vertex   2.227386e+00 -2.227386e+00 -2.689154e+01
      vertex   2.727980e+00 -1.575000e+00 -2.751654e+01
      vertex   2.727980e+00 -1.575000e+00 -2.689154e+01
    endloop
  endfacet
  facet normal 9.238797e+00 -3.826830e+00 0.000000e+00
    outer loop
      vertex   2.727980e+00 -1.575000e+00 -2.689154e+01
      vertex   2.727980e+00 -1.575000e+00 -2.751654e+01
      vertex   3.042666e+00 -8.152800e-01 -2.689154e+01
    endloop
  endfacet
  facet normal 0.000000e+00 0.000000e+00 -3.826830e+00
    outer loop
      vertex   8.152800e-01 -3.042666e+00 -2.751654e+01
      vertex   -8.152800e-01 -3.042666e+00 -2.751654e+01
      vertex   1.575000e+00 -2.727980e+00 -2.751654e+01
    endloop
  endfacet
  facet normal 0.000000e+00 0.000000e+00 -1.305261e+00
    outer loop
      vertex   1.575000e+00 -2.727980e+00 -2.751654e+01
      vertex   -8.152800e-01 -3.042666e+00 -2.751654e+01
      vertex   -1.575000e+00 -2.727980e+00 -2.751654e+01
    endloop
  endfacet
  facet normal 0.000000e+00 0.000000e+00 -6.087618e+00
    outer loop
      vertex   1.575000e+00 -2.727980e+00 -2.751654e+01
      vertex   -1.575000e+00 -2.727980e+00 -2.751654e+01
      vertex   2.227386e+00 -2.227386e+00 -2.751654e+01
    endloop
  endfacet
  facet normal 0.000000e+00 0.000000e+00 -1.305263e+00
    outer loop
      vertex   2.227386e+00 -2.227386e+00 -2.751654e+01
      vertex   -1.575000e+00 -2.727980e+00 -2.751654e+01
      vertex   -2.227386e+00 -2.227386e+00 -2.751654e+01
    endloop
  endfacet
  facet normal 0.000000e+00 0.000000e+00 -7.933530e+00
    outer loop
      vertex   2.227386e+00 -2.227386e+00 -2.751654e+01
      vertex   -2.227386e+00 -2.227386e+00 -2.751654e+01
      vertex   2.727980e+00 -1.575000e+00 -2.751654e+01
    endloop
  endfacet
  facet normal 0.000000e+00 0.000000e+00 -1.305261e+00
    outer loop
      vertex   2.727980e+00 -1.575000e+00 -2.751654e+01
      vertex   -2.227386e+00 -2.227386e+00 -2.751654e+01
      vertex   -2.727980e+00 -1.575000e+00 -2.751654e+01
    endloop
  endfacet
  facet normal 0.000000e+00 0.000000e+00 -9.238797e+00
    outer loop
      vertex   2.727980e+00 -1.575000e+00 -2.751654e+01
      vertex   -2.727980e+00 -1.575000e+00 -2.751654e+01
      vertex   3.042666e+00 -8.152800e-01 -2.751654e+01
    endloop
  endfacet
  facet normal 0.000000e+00 0.000000e+00 -1.305262e+00
    outer loop
      vertex   3.042666e+00 -8.152800e-01 -2.751654e+01
      vertex   -2.727980e+00 -1.575000e+00 -2.751654e+01
      vertex   -3.042666e+00 -8.152800e-01 -2.751654e+01
    endloop
  endfacet
  facet normal 0.000000e+00 0.000000e+00 -9.914448e+00
    outer loop
      vertex   3.042666e+00 -8.152800e-01 -2.751654e+01
      vertex   -3.042666e+00 -8.152800e-01 -2.751654e+01
      vertex   3.150000e+00 0.000000e+00 -2.751654e+01
    endloop
  endfacet
  facet normal 0.000000e+00 0.000000e+00 -1.305262e+00
    outer loop
      vertex   3.150000e+00 0.000000e+00 -2.751654e+01
      vertex   -3.042666e+00 -8.152800e-01 -2.751654e+01
      vertex   -3.150000e+00 0.000000e+00 -2.751654e+01
    endloop
  endfacet
  facet normal 0.000000e+00 0.000000e+00 -9.914448e+00
    outer loop
      vertex   3.150000e+00 0.000000e+00 -2.751654e+01
      vertex   -3.150000e+00 0.000000e+00 -2.751654e+01
      vertex   3.042666e+00 8.152800e-01 -2.751654e+01
    endloop
  endfacet
  facet normal 0.000000e+00 0.000000e+00 -1.305262e+00
    outer loop
      vertex   3.042666e+00 8.152800e-01 -2.751654e+01
      vertex   -3.150000e+00 0.000000e+00 -2.751654e+01
      vertex   -3.042666e+00 8.152800e-01 -2.751654e+01
    endloop
  endfacet
  facet normal 0.000000e+00 0.000000e+00 -9.238797e+00
    outer loop
      vertex   3.042666e+00 8.152800e-01 -2.751654e+01
      vertex   -3.042666e+00 8.152800e-01 -2.751654e+01
      vertex   2.727980e+00 1.575000e+00 -2.751654e+01
    endloop
  endfacet
  facet normal 0.000000e+00 0.000000e+00 -1.305262e+00
    outer loop
      vertex   2.727980e+00 1.575000e+00 -2.751654e+01
      vertex   -3.042666e+00 8.152800e-01 -2.751654e+01
      vertex   -2.727980e+00 1.575000e+00 -2.751654e+01
    endloop
  endfacet
  facet normal 0.000000e+00 0.000000e+00 -7.933530e+00
    outer loop
      vertex   2.727980e+00 1.575000e+00 -2.751654e+01
      vertex   -2.727980e+00 1.575000e+00 -2.751654e+01
      vertex   2.227386e+00 2.227386e+00 -2.751654e+01
    endloop
  endfacet
  facet normal 0.000000e+00 0.000000e+00 -1.305261e+00
    outer loop
      vertex   2.227386e+00 2.227386e+00 -2.751654e+01
      vertex   -2.727980e+00 1.575000e+00 -2.751654e+01
      vertex   -2.227386e+00 2.227386e+00 -2.751654e+01
    endloop
  endfacet
  facet normal 0.000000e+00 0.000000e+00 -6.087618e+00
    outer loop
      vertex   2.227386e+00 2.227386e+00 -2.751654e+01
      vertex   -2.227386e+00 2.227386e+00 -2.751654e+01
      vertex   1.575000e+00 2.727980e+00 -2.751654e+01
    endloop
  endfacet
  facet normal 0.000000e+00 0.000000e+00 -1.305263e+00
    outer loop
      vertex   1.575000e+00 2.727980e+00 -2.751654e+01
      vertex   -2.227386e+00 2.227386e+00 -2.751654e+01
      vertex   -1.575000e+00 2.727980e+00 -2.751654e+01
    endloop
  endfacet
  facet normal 0.000000e+00 0.000000e+00 -3.826830e+00
    outer loop
      vertex   1.575000e+00 2.727980e+00 -2.751654e+01
      vertex   -1.575000e+00 2.727980e+00 -2.751654e+01
      vertex   8.152800e-01 3.042666e+00 -2.751654e+01
    endloop
  endfacet
  facet normal 0.000000e+00 0.000000e+00 -1.305261e+00
    outer loop
      vertex   8.152800e-01 3.042666e+00 -2.751654e+01
      vertex   -1.575000e+00 2.727980e+00 -2.751654e+01
      vertex   -8.152800e-01 3.042666e+00 -2.751654e+01
    endloop
  endfacet
  facet normal 0.000000e+00 0.000000e+00 -1.305269e+00
    outer loop
      vertex   8.152800e-01 3.042666e+00 -2.751654e+01
      vertex   -8.152800e-01 3.042666e+00 -2.751654e+01
      vertex   0.000000e+00 3.150000e+00 -2.751654e+01
    endloop
  endfacet
  facet normal 0.000000e+00 0.000000e+00 -1.305269e+00
    outer loop
      vertex   8.152800e-01 -3.042666e+00 -2.751654e+01
      vertex   0.000000e+00 -3.150000e+00 -2.751654e+01
      vertex   -8.152800e-01 -3.042666e+00 -2.751654e+01
    endloop
  endfacet
endsolid
